# xmcd CD database file
#
# Track frame offsets:
#	150
#	28902
#	52647
#	75277
#	112240
#	133037
#	158012
#	176525
#	198012
#	218380
#	245377
#	276477
#	308105
#	334605
#
# Disc length: 4685 seconds
#
# Revision: 4
# Processed by: cddbd v1.5.2PL0 Copyright (c) Steve Scherf et al.
# Submitted via: CDex 1.70beta2
#
DISCID=b3124b0e
DTITLE=Various Artist - New Spirits In Jazz Part 01
DYEAR=1995
DGENRE=Jazz
TTITLE0=Jimmy Earl - Haunt Me
TTITLE1=Leni Stern - Grace
TTITLE2=Seis Del Solar - New Beginning
TTITLE3=Bill Evans - Pastiece
TTITLE4=David Torn - Bust My Ass For Thinking
TTITLE5=Jim Beard - Michigan Roll
TTITLE6=Michael Shrieve - Sam The Man
TTITLE7=Mardi Gras Brass Band - Latino Funky
TTITLE8=Rez Abbasi - Look Around
TTITLE9=Christoph Stiefel - Passion
TTITLE10=Mordy Ferber - Mr. X
TTITLE11=Jazzsick - Shortline
TTITLE12=Clive Stevens - African Cowboy
TTITLE13=David Tronzo - Ruler Of My Heart
EXTD=(C) 1995 World's Best - EFA YEAR: 1995
EXTT0=
EXTT1=
EXTT2=
EXTT3=
EXTT4=
EXTT5=
EXTT6=
EXTT7=
EXTT8=
EXTT9=
EXTT10=
EXTT11=
EXTT12=
EXTT13=
PLAYORDER=
